<mxfile host="app.diagrams.net" modified="2024-01-15T15:37:15.656Z" agent="Mozilla/5.0 (Macintosh; Intel Mac OS X 10_15_7) AppleWebKit/537.36 (KHTML, like Gecko) Chrome/120.0.0.0 Safari/537.36" etag="VTZ-ixLSdASLz9qtzaHV" version="22.1.18" type="github">
  <diagram name="Page-1" id="3Tf1uQsE-VSfRwFhdxx6">
    <mxGraphModel dx="513" dy="1966" grid="1" gridSize="10" guides="1" tooltips="1" connect="1" arrows="1" fold="1" page="1" pageScale="1" pageWidth="850" pageHeight="1100" math="0" shadow="0">
      <root>
        <mxCell id="0" />
        <mxCell id="1" parent="0" />
        <mxCell id="5yzuzg_MkdJ3tbxDxPKs-1" value="DC" style="rounded=0;whiteSpace=wrap;html=1;fillColor=#dae8fc;strokeColor=#6c8ebf;" vertex="1" parent="1">
          <mxGeometry x="1040" y="-1040" width="640" height="40" as="geometry" />
        </mxCell>
        <mxCell id="5yzuzg_MkdJ3tbxDxPKs-2" value="Post Slice 1 Data1" style="rounded=0;whiteSpace=wrap;html=1;fillColor=#e1d5e7;strokeColor=#9673a6;" vertex="1" parent="1">
          <mxGeometry x="1200" y="-960" width="120" height="40" as="geometry" />
        </mxCell>
        <mxCell id="5yzuzg_MkdJ3tbxDxPKs-3" value="Poll Post S1D1" style="rounded=0;whiteSpace=wrap;html=1;fillColor=#fff2cc;strokeColor=#d6b656;" vertex="1" parent="1">
          <mxGeometry x="1200" y="-640" width="120" height="40" as="geometry" />
        </mxCell>
        <mxCell id="5yzuzg_MkdJ3tbxDxPKs-6" value="Check S1 F(n)" style="rounded=0;whiteSpace=wrap;html=1;fillColor=#d5e8d4;strokeColor=#82b366;" vertex="1" parent="1">
          <mxGeometry x="1200" y="-400" width="120" height="40" as="geometry" />
        </mxCell>
        <mxCell id="5yzuzg_MkdJ3tbxDxPKs-8" value="Post S2 D1" style="rounded=0;whiteSpace=wrap;html=1;fillColor=#e1d5e7;strokeColor=#9673a6;" vertex="1" parent="1">
          <mxGeometry x="1360" y="-800" width="120" height="40" as="geometry" />
        </mxCell>
        <mxCell id="5yzuzg_MkdJ3tbxDxPKs-9" value="DMA S1 D(n)" style="rounded=0;whiteSpace=wrap;html=1;fillColor=#dae8fc;strokeColor=#6c8ebf;" vertex="1" parent="1">
          <mxGeometry x="1200" y="-880" width="120" height="40" as="geometry" />
        </mxCell>
        <mxCell id="5yzuzg_MkdJ3tbxDxPKs-12" value="DMA S2 D(n)" style="rounded=0;whiteSpace=wrap;html=1;fillColor=#dae8fc;strokeColor=#6c8ebf;" vertex="1" parent="1">
          <mxGeometry x="1360" y="-720" width="120" height="40" as="geometry" />
        </mxCell>
        <mxCell id="5yzuzg_MkdJ3tbxDxPKs-13" value="Poll DMA S1 D(n)" style="rounded=0;whiteSpace=wrap;html=1;fillColor=#ffe6cc;strokeColor=#d79b00;" vertex="1" parent="1">
          <mxGeometry x="1200" y="-480" width="120" height="40" as="geometry" />
        </mxCell>
        <mxCell id="5yzuzg_MkdJ3tbxDxPKs-14" value="Cal S1 D(n)" style="rounded=0;whiteSpace=wrap;html=1;fillColor=#d5e8d4;strokeColor=#82b366;" vertex="1" parent="1">
          <mxGeometry x="1200" y="-320" width="120" height="40" as="geometry" />
        </mxCell>
        <mxCell id="5yzuzg_MkdJ3tbxDxPKs-15" value="Post S1 D(n)" style="rounded=0;whiteSpace=wrap;html=1;fillColor=#e1d5e7;strokeColor=#9673a6;" vertex="1" parent="1">
          <mxGeometry x="1200" width="120" height="40" as="geometry" />
        </mxCell>
        <mxCell id="5yzuzg_MkdJ3tbxDxPKs-16" value="DMA S1 D(n-1)" style="rounded=0;whiteSpace=wrap;html=1;fillColor=#dae8fc;strokeColor=#6c8ebf;" vertex="1" parent="1">
          <mxGeometry x="1200" y="80" width="120" height="40" as="geometry" />
        </mxCell>
        <mxCell id="5yzuzg_MkdJ3tbxDxPKs-21" value="Post S1 F1" style="rounded=0;whiteSpace=wrap;html=1;fillColor=#e1d5e7;strokeColor=#9673a6;" vertex="1" parent="1">
          <mxGeometry x="1200" y="-560" width="120" height="40" as="geometry" />
        </mxCell>
        <mxCell id="5yzuzg_MkdJ3tbxDxPKs-23" value="Poll Post S1F1" style="rounded=0;whiteSpace=wrap;html=1;fillColor=#fff2cc;strokeColor=#d6b656;" vertex="1" parent="1">
          <mxGeometry x="1200" y="-240" width="120" height="40" as="geometry" />
        </mxCell>
        <mxCell id="5yzuzg_MkdJ3tbxDxPKs-29" value="Poll Post S2 D1" style="rounded=0;whiteSpace=wrap;html=1;fillColor=#fff2cc;strokeColor=#d6b656;" vertex="1" parent="1">
          <mxGeometry x="1360" y="-160" width="120" height="40" as="geometry" />
        </mxCell>
        <mxCell id="5yzuzg_MkdJ3tbxDxPKs-30" value="Post S2 F1" style="rounded=0;whiteSpace=wrap;html=1;fillColor=#e1d5e7;strokeColor=#9673a6;" vertex="1" parent="1">
          <mxGeometry x="1360" y="-80" width="120" height="40" as="geometry" />
        </mxCell>
        <mxCell id="5yzuzg_MkdJ3tbxDxPKs-31" value="Poll Post S2D1" style="rounded=0;whiteSpace=wrap;html=1;fillColor=#fff2cc;strokeColor=#d6b656;" vertex="1" parent="1">
          <mxGeometry x="1360" y="160" width="120" height="40" as="geometry" />
        </mxCell>
        <mxCell id="5yzuzg_MkdJ3tbxDxPKs-32" value="Check S2 F(n)" style="rounded=0;whiteSpace=wrap;html=1;fillColor=#d5e8d4;strokeColor=#82b366;" vertex="1" parent="1">
          <mxGeometry x="1360" y="400" width="120" height="40" as="geometry" />
        </mxCell>
        <mxCell id="5yzuzg_MkdJ3tbxDxPKs-33" value="Poll DMA S2 D(n)" style="rounded=0;whiteSpace=wrap;html=1;fillColor=#ffe6cc;strokeColor=#d79b00;" vertex="1" parent="1">
          <mxGeometry x="1360" y="320" width="120" height="40" as="geometry" />
        </mxCell>
        <mxCell id="5yzuzg_MkdJ3tbxDxPKs-34" value="Cal S2 D(n)" style="rounded=0;whiteSpace=wrap;html=1;fillColor=#d5e8d4;strokeColor=#82b366;" vertex="1" parent="1">
          <mxGeometry x="1360" y="480" width="120" height="40" as="geometry" />
        </mxCell>
        <mxCell id="5yzuzg_MkdJ3tbxDxPKs-35" value="Post S2 F1" style="rounded=0;whiteSpace=wrap;html=1;fillColor=#e1d5e7;strokeColor=#9673a6;" vertex="1" parent="1">
          <mxGeometry x="1360" y="240" width="120" height="40" as="geometry" />
        </mxCell>
        <mxCell id="5yzuzg_MkdJ3tbxDxPKs-36" value="Poll Post S2 F1" style="rounded=0;whiteSpace=wrap;html=1;fillColor=#fff2cc;strokeColor=#d6b656;" vertex="1" parent="1">
          <mxGeometry x="1360" y="560" width="120" height="40" as="geometry" />
        </mxCell>
        <mxCell id="5yzuzg_MkdJ3tbxDxPKs-43" value="Poll Post S1D(n-1)" style="rounded=0;whiteSpace=wrap;html=1;fillColor=#fff2cc;strokeColor=#d6b656;" vertex="1" parent="1">
          <mxGeometry x="1200" y="640" width="120" height="40" as="geometry" />
        </mxCell>
        <mxCell id="5yzuzg_MkdJ3tbxDxPKs-44" value="Check S1 F(n)" style="rounded=0;whiteSpace=wrap;html=1;fillColor=#d5e8d4;strokeColor=#82b366;" vertex="1" parent="1">
          <mxGeometry x="1200" y="880" width="120" height="40" as="geometry" />
        </mxCell>
        <mxCell id="5yzuzg_MkdJ3tbxDxPKs-45" value="Poll DMA S1 D(n-1)" style="rounded=0;whiteSpace=wrap;html=1;fillColor=#ffe6cc;strokeColor=#d79b00;" vertex="1" parent="1">
          <mxGeometry x="1200" y="800" width="120" height="40" as="geometry" />
        </mxCell>
        <mxCell id="5yzuzg_MkdJ3tbxDxPKs-46" value="Cal S1 D(n)" style="rounded=0;whiteSpace=wrap;html=1;fillColor=#d5e8d4;strokeColor=#82b366;" vertex="1" parent="1">
          <mxGeometry x="1200" y="960" width="120" height="40" as="geometry" />
        </mxCell>
        <mxCell id="5yzuzg_MkdJ3tbxDxPKs-47" value="Post S1 F(n)" style="rounded=0;whiteSpace=wrap;html=1;fillColor=#e1d5e7;strokeColor=#9673a6;" vertex="1" parent="1">
          <mxGeometry x="1200" y="720" width="120" height="40" as="geometry" />
        </mxCell>
        <mxCell id="5yzuzg_MkdJ3tbxDxPKs-48" value="Poll Post S1F1" style="rounded=0;whiteSpace=wrap;html=1;fillColor=#fff2cc;strokeColor=#d6b656;" vertex="1" parent="1">
          <mxGeometry x="1200" y="1040" width="120" height="40" as="geometry" />
        </mxCell>
        <mxCell id="5yzuzg_MkdJ3tbxDxPKs-49" value="" style="endArrow=classic;startArrow=classic;html=1;rounded=0;entryX=0;entryY=0.5;entryDx=0;entryDy=0;exitX=0;exitY=0.5;exitDx=0;exitDy=0;" edge="1" parent="1" source="5yzuzg_MkdJ3tbxDxPKs-3" target="5yzuzg_MkdJ3tbxDxPKs-2">
          <mxGeometry width="50" height="50" relative="1" as="geometry">
            <mxPoint x="1160" y="-680" as="sourcePoint" />
            <mxPoint x="1210" y="-730" as="targetPoint" />
            <Array as="points">
              <mxPoint x="1160" y="-620" />
              <mxPoint x="1160" y="-940" />
            </Array>
          </mxGeometry>
        </mxCell>
        <mxCell id="5yzuzg_MkdJ3tbxDxPKs-50" value="" style="endArrow=classic;startArrow=classic;html=1;rounded=0;entryX=0;entryY=0.5;entryDx=0;entryDy=0;exitX=0;exitY=0.5;exitDx=0;exitDy=0;" edge="1" parent="1" source="5yzuzg_MkdJ3tbxDxPKs-13">
          <mxGeometry width="50" height="50" relative="1" as="geometry">
            <mxPoint x="1200" y="-540" as="sourcePoint" />
            <mxPoint x="1200" y="-860" as="targetPoint" />
            <Array as="points">
              <mxPoint x="1140" y="-460" />
              <mxPoint x="1140" y="-860" />
            </Array>
          </mxGeometry>
        </mxCell>
        <mxCell id="5yzuzg_MkdJ3tbxDxPKs-51" value="" style="endArrow=classic;startArrow=classic;html=1;rounded=0;entryX=0;entryY=0.5;entryDx=0;entryDy=0;exitX=0;exitY=0.5;exitDx=0;exitDy=0;" edge="1" parent="1">
          <mxGeometry width="50" height="50" relative="1" as="geometry">
            <mxPoint x="1200" y="-220" as="sourcePoint" />
            <mxPoint x="1200" y="-540" as="targetPoint" />
            <Array as="points">
              <mxPoint x="1160" y="-220" />
              <mxPoint x="1160" y="-540" />
            </Array>
          </mxGeometry>
        </mxCell>
        <mxCell id="5yzuzg_MkdJ3tbxDxPKs-52" value="" style="endArrow=classic;startArrow=classic;html=1;rounded=0;entryX=1;entryY=0.5;entryDx=0;entryDy=0;exitX=1;exitY=0.5;exitDx=0;exitDy=0;" edge="1" parent="1" source="5yzuzg_MkdJ3tbxDxPKs-29" target="5yzuzg_MkdJ3tbxDxPKs-8">
          <mxGeometry width="50" height="50" relative="1" as="geometry">
            <mxPoint x="1660" y="-420" as="sourcePoint" />
            <mxPoint x="1660" y="-740" as="targetPoint" />
            <Array as="points">
              <mxPoint x="1520" y="-140" />
              <mxPoint x="1520" y="-780" />
            </Array>
          </mxGeometry>
        </mxCell>
        <mxCell id="5yzuzg_MkdJ3tbxDxPKs-53" value="" style="endArrow=classic;startArrow=classic;html=1;rounded=0;entryX=1;entryY=0.5;entryDx=0;entryDy=0;exitX=1;exitY=0.5;exitDx=0;exitDy=0;" edge="1" parent="1" source="5yzuzg_MkdJ3tbxDxPKs-33">
          <mxGeometry width="50" height="50" relative="1" as="geometry">
            <mxPoint x="1480" y="-60" as="sourcePoint" />
            <mxPoint x="1480" y="-700" as="targetPoint" />
            <Array as="points">
              <mxPoint x="1540" y="340" />
              <mxPoint x="1540" y="-700" />
            </Array>
          </mxGeometry>
        </mxCell>
      </root>
    </mxGraphModel>
  </diagram>
</mxfile>
